<svg width="21" height="16" viewBox="0 0 21 16" fill="none" xmlns="http://www.w3.org/2000/svg">
<path fill-rule="evenodd" clip-rule="evenodd" d="M0.407266 0.68254C0.766688 0.263214 1.39799 0.214652 1.81731 0.574075L10.4999 8.01625L19.1824 0.574075C19.6017 0.214652 20.233 0.263214 20.5924 0.68254C20.9519 1.10187 20.9033 1.73317 20.484 2.09259L11.1506 10.0926C10.7762 10.4136 10.2236 10.4136 9.84906 10.0926L0.515731 2.09259C0.0964048 1.73317 0.0478433 1.10187 0.407266 0.68254ZM0.407265 6.01587C0.766688 5.59655 1.39799 5.54799 1.81731 5.90741L10.4999 13.3496L19.1824 5.90741C19.6017 5.54799 20.233 5.59655 20.5924 6.01587C20.9519 6.4352 20.9033 7.0665 20.484 7.42592L11.1506 15.4259C10.7762 15.7469 10.2236 15.7469 9.84906 15.4259L0.515731 7.42592C0.0964048 7.0665 0.0478433 6.4352 0.407265 6.01587Z" fill="white"/>
</svg>
