<svg width="28" height="28" viewBox="0 0 28 28" fill="none" xmlns="http://www.w3.org/2000/svg">
<path opacity="0.5" d="M13.9997 14L10.549 17.4171C7.13945 20.7935 5.43467 22.4817 5.91194 23.9383C5.95296 24.0635 6.00391 24.1853 6.0643 24.3026C6.76688 25.6667 9.17781 25.6667 13.9997 25.6667C18.8215 25.6667 21.2325 25.6667 21.935 24.3026C21.9954 24.1853 22.0464 24.0635 22.0874 23.9383C22.5647 22.4817 20.8599 20.7935 17.4503 17.4171L13.9997 14ZM13.9997 14L17.4503 10.583C20.8599 7.20654 22.5647 5.51833 22.0874 4.06178C22.0464 3.93657 21.9954 3.81477 21.935 3.69751C21.2325 2.33337 18.8215 2.33337 13.9997 2.33337C9.17781 2.33337 6.76688 2.33337 6.0643 3.69751C6.00391 3.81477 5.95296 3.93657 5.91194 4.06178C5.43467 5.51833 7.13945 7.20654 10.549 10.583L13.9997 14Z" stroke="white" stroke-width="1.5"/>
<path d="M11.667 6.41663H16.3337" stroke="white" stroke-width="1.5" stroke-linecap="round"/>
<path d="M11.667 21.5834H16.3337" stroke="white" stroke-width="1.5" stroke-linecap="round"/>
</svg>
