<svg width="16" height="17" viewBox="0 0 16 17" fill="none" xmlns="http://www.w3.org/2000/svg">
<path d="M12.7143 11.8806L9.1785 15.4164C8.86599 15.7286 8.44232 15.904 8.00058 15.904C7.55885 15.904 7.13518 15.7286 6.82267 15.4164L3.286 11.8806C2.35368 10.9482 1.71878 9.76034 1.46157 8.46714C1.20437 7.17394 1.33641 5.83352 1.841 4.61536C2.3456 3.39721 3.20008 2.35604 4.2964 1.62351C5.39272 0.890984 6.68164 0.5 8.00017 0.5C9.31869 0.5 10.6076 0.890984 11.7039 1.62351C12.8003 2.35604 13.6547 3.39721 14.1593 4.61536C14.6639 5.83352 14.796 7.17394 14.5388 8.46714C14.2816 9.76034 13.6466 10.9482 12.7143 11.8806Z" stroke="white" stroke-linecap="round" stroke-linejoin="round"/>
</svg>
