<svg width="28" height="28" viewBox="0 0 28 28" fill="none" xmlns="http://www.w3.org/2000/svg">
<path fill-rule="evenodd" clip-rule="evenodd" d="M7 9.45876C7 5.52352 10.134 2.33337 14 2.33337C17.866 2.33337 21 5.52352 21 9.45876C21 13.3632 18.7658 17.9192 15.2801 19.5485C14.4675 19.9283 13.5325 19.9283 12.7199 19.5485C9.23416 17.9192 7 13.3632 7 9.45876ZM14 11.6667C15.2887 11.6667 16.3333 10.622 16.3333 9.33337C16.3333 8.04471 15.2887 7.00004 14 7.00004C12.7113 7.00004 11.6667 8.04471 11.6667 9.33337C11.6667 10.622 12.7113 11.6667 14 11.6667Z" fill="white"/>
<path opacity="0.5" fill-rule="evenodd" clip-rule="evenodd" d="M4.23154 16.9566C4.53165 17.3354 4.46788 17.8857 4.08911 18.1859C3.41984 18.7161 3.20801 19.1835 3.20801 19.5417C3.20801 19.8251 3.33667 20.1694 3.72209 20.5679C4.11145 20.9705 4.7198 21.3794 5.54783 21.7549C7.01112 22.4186 9.03377 22.9211 11.3747 23.14V22.6042C11.3747 22.2609 11.5755 21.9493 11.8881 21.8074C12.2008 21.6655 12.5675 21.7196 12.8259 21.9457L14.5759 23.4769C14.7658 23.6431 14.8747 23.8831 14.8747 24.1355C14.8747 24.3878 14.7658 24.6278 14.5759 24.794L12.8259 26.3252C12.5675 26.5513 12.2008 26.6054 11.8881 26.4635C11.5755 26.3216 11.3747 26.01 11.3747 25.6667V24.8972C8.82565 24.6735 6.54382 24.1282 4.825 23.3487C3.8755 22.918 3.05715 22.3976 2.46419 21.7845C1.86729 21.1674 1.45801 20.4097 1.45801 19.5417C1.45801 18.4331 2.11912 17.514 3.00233 16.8142C3.3811 16.5141 3.93143 16.5779 4.23154 16.9566ZM23.7678 16.9566C24.0679 16.5779 24.6183 16.5141 24.997 16.8142C25.8802 17.514 26.5413 18.4331 26.5413 19.5417C26.5413 21.1495 25.1786 22.3541 23.5703 23.16C21.8883 24.0028 19.5892 24.5993 17.0046 24.8613C16.5238 24.91 16.0945 24.5597 16.0458 24.079C15.9971 23.5982 16.3473 23.1689 16.8281 23.1202C19.2754 22.8722 21.3513 22.3145 22.7863 21.5954C24.295 20.8394 24.7913 20.0744 24.7913 19.5417C24.7913 19.1836 24.5795 18.7161 23.9102 18.1859C23.5315 17.8857 23.4677 17.3354 23.7678 16.9566Z" fill="white"/>
</svg>
